<?xml version="1.0" encoding="UTF-8"?>
<svg width="752pt" height="752pt" version="1.1" viewBox="0 0 752 752" xmlns="http://www.w3.org/2000/svg">
 <g fill="#002C5F">
  <path d="m585.11 449.09c-1.5234-3.2578-4.8477-5.3711-8.4805-5.3711h-35.098l39.16-61.402c1.8633-2.8945 1.9844-6.5547 0.33203-9.5156-1.6289-2.9961-4.7812-4.8555-8.2227-4.8555h-61.023c-3.543 0-6.8359 2.043-8.3672 5.1562l-57.23 113.68c-1.4414 2.8945-1.2969 6.2812 0.4375 9.0859 1.7227 2.7656 4.6992 4.4258 7.9492 4.4258h30.828l-39.477 93.141c-1.7695 4.2852-0.19141 9.1523 3.9531 11.691 1.457 0.80469 3.0859 1.2422 4.6992 1.2422 2.7656 0 5.3789-1.207 7.1641-3.3086l122.05-143.96c2.332-2.7617 2.8555-6.668 1.3242-10zm-124.5 138.1 38.27-90.293c0.73438-1.7109 0.54688-3.6758-0.48047-5.2305-1.0273-1.5547-2.7617-2.4844-4.625-2.4844h-36.375l55.453-110.14h56.77l-42.891 67.242c-1.082 1.7031-1.1562 3.8711-0.17578 5.6523 0.96875 1.7773 2.8398 2.8867 4.8633 2.8867h41.445z"/>
  <path d="m279.17 318.37c32.855 0 59.582-26.727 59.582-59.582 0-32.855-26.727-59.582-59.582-59.582s-59.582 26.727-59.582 59.582c0 32.855 26.727 59.582 59.582 59.582zm0-108.06c26.734 0 48.484 21.746 48.484 48.484 0 26.734-21.746 48.484-48.484 48.484-26.734 0-48.484-21.746-48.484-48.484 0.003906-26.738 21.75-48.484 48.484-48.484z"/>
  <path d="m279.17 180.44c3.0625 0 5.5508-2.4844 5.5508-5.5508v-23.699c0-3.0625-2.4844-5.5508-5.5508-5.5508-3.0625 0-5.5508 2.4844-5.5508 5.5508v23.703c0 3.0625 2.4883 5.5469 5.5508 5.5469z"/>
  <path d="m273.62 342.69v23.703c0 3.0625 2.4844 5.5508 5.5508 5.5508 3.0625 0 5.5508-2.4844 5.5508-5.5508v-23.703c0-3.0625-2.4844-5.5508-5.5508-5.5508-3.0625 0-5.5508 2.4883-5.5508 5.5508z"/>
  <path d="m215.92 203.39c1.082 1.082 2.5 1.6289 3.9219 1.6289s2.8398-0.53906 3.9219-1.6289c2.168-2.168 2.168-5.6836 0-7.8516l-16.758-16.75c-2.168-2.168-5.6836-2.168-7.8516 0-2.168 2.168-2.168 5.6836 0 7.8516z"/>
  <path d="m334.56 314.18c-2.168 2.168-2.168 5.6836 0 7.8516l16.762 16.762c1.082 1.082 2.5 1.6289 3.9219 1.6289s2.8398-0.53906 3.9219-1.6289c2.168-2.168 2.168-5.6836 0-7.8516l-16.762-16.762c-2.1602-2.1602-5.6758-2.1602-7.8438 0z"/>
  <path d="m338.49 205.02c1.4219 0 2.8398-0.53906 3.9219-1.6289l16.762-16.762c2.168-2.168 2.168-5.6836 0-7.8516-2.168-2.168-5.6836-2.168-7.8516 0l-16.762 16.77c-2.168 2.168-2.168 5.6836 0 7.8516 1.0898 1.082 2.5078 1.6211 3.9297 1.6211z"/>
  <path d="m223.77 314.18c-2.168-2.168-5.6836-2.168-7.8516 0l-16.762 16.762c-2.168 2.168-2.168 5.6836 0 7.8516 1.082 1.082 2.5 1.6289 3.9219 1.6289s2.8398-0.53906 3.9219-1.6289l16.762-16.762c2.1758-2.168 2.1758-5.6836 0.007813-7.8516z"/>
  <path d="m357.52 258.79c0 3.0625 2.4844 5.5508 5.5508 5.5508h23.707c3.0625 0 5.5508-2.4844 5.5508-5.5508 0-3.0625-2.4844-5.5508-5.5508-5.5508h-23.707c-3.0625 0.003907-5.5508 2.4883-5.5508 5.5508z"/>
  <path d="m200.82 258.79c0-3.0625-2.4844-5.5508-5.5508-5.5508l-23.699 0.003907c-3.0625 0-5.5508 2.4844-5.5508 5.5508 0 3.0625 2.4844 5.5508 5.5508 5.5508h23.703c3.0625-0.003906 5.5469-2.4883 5.5469-5.5547z"/>
  <path d="m412.41 550.23c0.082032-0.23828 0.082032-0.49609 0.125-0.75391 0.050782-0.3125 0.11719-0.59766 0.11719-0.91797 0-0.15625 0.007812-0.3125-0.007812-0.47266-0.007813-0.066406 0.023437-0.13281 0.015624-0.19141-0.023437-0.19141-0.14062-0.35547-0.17578-0.53906-0.066406-0.28906-0.11719-0.57031-0.23047-0.85156-0.066406-0.15625-0.125-0.30469-0.19922-0.45703-0.14062-0.25781-0.31641-0.47266-0.48828-0.71094-0.10937-0.15625-0.15625-0.33984-0.28125-0.48047-0.074218-0.082031-0.16406-0.10938-0.24609-0.17578-0.066407-0.066406-0.089844-0.15625-0.15625-0.21484l-32.234-29.082c-2.2773-2.0586-5.7773-1.8633-7.8438 0.40625-2.0508 2.2773-1.8711 5.7773 0.40625 7.8359l22.762 20.527c-48.281 3.6562-87.16-6.8906-115.38-31.848-30.887-27.32-47.898-71.34-47.898-123.94 0-3.0625-2.4844-5.5508-5.5508-5.5508-3.0625 0-5.5508 2.4844-5.5508 5.5508 0 55.824 18.344 102.8 51.641 132.25 26.715 23.629 61.789 35.527 104.54 35.527 4.9805 0 10.078-0.17188 15.266-0.49609l-19.848 17.914c-2.2773 2.0508-2.457 5.5664-0.39844 7.8438 1.0938 1.2148 2.6055 1.8281 4.1211 1.8281 1.3242 0 2.6562-0.46484 3.7148-1.4297l32.242-29.094c0.082032-0.074219 0.10938-0.17188 0.18359-0.25 0.058594-0.066407 0.15625-0.089844 0.20703-0.15625 0.042968-0.050782 0.050781-0.10938 0.097656-0.15625 0.18359-0.22266 0.30469-0.46484 0.45703-0.71875 0.15625-0.25781 0.32422-0.50391 0.4375-0.78516 0.039063-0.15234 0.11328-0.27734 0.14844-0.41016z"/>
 </g>
</svg>
