<?xml version="1.0" encoding="UTF-8"?>
<svg width="752pt" height="752pt" version="1.1" viewBox="0 0 752 752" xmlns="http://www.w3.org/2000/svg">
 <g fill="#002C5F">
  <path d="m257.61 590.59h-103.59c-4.4414 0-7.3984 2.9609-7.3984 7.3984 0 4.4414 2.9609 7.3984 7.3984 7.3984h103.6c4.4414 0 7.3984-2.9609 7.3984-7.3984 0-4.4414-2.9609-7.3984-7.4023-7.3984z"/>
  <path d="m538.79 590.59h-96.195v-44.398h149.47c7.3984 0 11.84-6.6602 11.84-12.578v-2.2188l-2.9609-11.098c-0.73828-3.6992-5.1797-6.6602-8.8789-5.1797-3.6992 0.73828-6.6602 5.1797-5.1797 8.8789l1.4805 6.6602-87.316-0.003906-8.1406-59.199h79.176l6.6602 24.418c0.73828 2.9609 3.6992 5.1797 7.3984 5.1797h2.2188c3.6992-0.73828 6.6602-5.1797 5.1797-8.8789l-46.617-174.63c0-0.73828 0-0.73828-0.73828-1.4805-1.4805-2.9609-5.1797-7.3984-10.359-7.3984h-319.66c-4.4414 0-8.8789 2.9609-11.098 7.3984 0 0.73828-0.73828 0.73828-0.73828 1.4805l-3.6992 12.578c-0.73828 3.6992 1.4805 8.1406 5.1797 8.8789s8.1406-1.4805 8.8789-5.1797l2.9609-10.359h60.676l-8.1406 59.199h-67.34l5.918-21.461c0.73828-3.6992-1.4805-8.1406-5.1797-8.8789-3.6992-0.73828-8.1406 1.4805-8.8789 5.1797l-45.875 173.89c-0.73828 2.9609-0.73828 7.3984 1.4805 10.359 2.2188 2.9609 5.1797 4.4414 8.8789 4.4414h150.21v44.398h-22.199c-4.4414 0-7.3984 2.9609-7.3984 7.3984 0 4.4414 2.9609 7.3984 7.3984 7.3984h88.797c4.4414 0 7.3984-2.9609 7.3984-7.3984 0-4.4414-2.9609-7.3984-7.3984-7.3984h-51.797v-44.398h103.6v44.398h-22.199c-4.4414 0-7.3984 2.9609-7.3984 7.3984 0 4.4414 2.9609 7.3984 7.3984 7.3984h133.2c4.4414 0 7.3984-2.9609 7.3984-7.3984 0-4.4414-2.9609-7.3984-7.4023-7.3984zm29.602-133.2h-77.699l-8.1406-59.199h69.559zm-184.99-133.2h74.738l1.4805 10.359c0.73828 3.6992 3.6992 6.6602 7.3984 6.6602h0.73828c3.6992-0.73828 6.6602-4.4414 6.6602-8.1406l-1.4805-8.8789h59.938l15.539 59.199h-67.336l-2.9609-21.461c-0.73828-3.6992-4.4414-6.6602-8.1406-6.6602-3.6992 0.73828-6.6602 4.4414-6.6602 8.1406l2.2188 19.238h-82.133zm-89.539 0h74.738v59.199h-82.875zm-42.918 207.19h-87.316l15.539-59.199h79.918zm-68.074-73.996 15.539-59.199h70.297l-8.1406 59.199zm185.73 73.996h-102.86l8.1406-59.199 94.715 0.003907zm7.3984-90.277c-4.4414 0-7.3984 2.9609-7.3984 7.3984v8.8828h-92.496l8.1406-59.199h84.355v22.938c0 4.4414 2.9609 7.3984 7.3984 7.3984 4.4414 0 7.3984-2.9609 7.3984-7.3984l0.003906-22.938h85.098l8.1406 59.199h-93.238v-8.8789c0-3.6992-2.9609-7.4023-7.4023-7.4023zm7.4023 90.277v-59.199h94.715l8.1406 59.199z"/>
  <path d="m597.99 590.59h-29.598c-4.4414 0-7.3984 2.9609-7.3984 7.3984 0 4.4414 2.9609 7.3984 7.3984 7.3984h29.598c4.4414 0 7.3984-2.9609 7.3984-7.3984 0-4.4414-2.957-7.3984-7.3984-7.3984z"/>
  <path d="m168.81 220.61c4.4414 0 7.3984-2.9609 7.3984-7.3984 0.003907-4.4414-2.957-7.4023-7.3984-7.4023-4.4375 0-7.3984-2.9609-7.3984-7.3984 0-4.4414 2.9609-7.3984 7.3984-7.3984 4.4414 0 7.3984-2.9609 7.3984-7.3984 0-4.4414 2.9609-7.3984 7.3984-7.3984h0.73828c3.6992 1.4805 8.1406 0.73828 9.6211-2.9609 3.7031-7.4023 11.102-11.844 19.242-11.844 12.578 0 22.199 9.6211 22.199 22.199 0 4.4414 2.9609 7.3984 7.3984 7.3984 4.4414 0 7.3984 2.9609 7.3984 7.3984 0 4.4414-2.9609 7.3984-7.3984 7.3984l-42.918 0.003906c-4.4414 0-7.3984 2.9609-7.3984 7.3984 0 4.4414 2.9609 7.3984 7.3984 7.3984l42.922 0.003906c12.578 0 22.199-9.6211 22.199-22.199 0-9.6211-6.6602-18.5-15.539-21.461-2.9609-17.02-17.762-30.34-36.262-30.34-11.84 0-22.938 5.1797-29.598 14.801-9.6211 0-18.5 6.6602-21.461 15.539-8.8789 2.9609-15.539 11.102-15.539 21.461 0 12.578 9.6211 22.199 22.199 22.199z"/>
  <path d="m509.2 220.61h73.996c12.578 0 22.199-9.6211 22.199-22.199s-9.6211-22.199-22.199-22.199c-4.4414 0-7.3984 2.9609-7.3984 7.3984 0 4.4414 2.9609 7.3984 7.3984 7.3984 4.4414 0 7.3984 2.9609 7.3984 7.3984 0 4.4414-2.9609 7.3984-7.3984 7.3984l-73.996 0.003906c-4.4414 0-7.3984-2.9609-7.3984-7.3984 0-4.4414 2.9609-7.3984 7.3984-7.3984 4.4414 0 7.3984-2.9609 7.3984-7.3984 0-4.4414 2.9609-7.3984 7.3984-7.3984h0.73828c3.6992 1.4805 8.1406 0.73828 9.6211-2.9609 3.7031-7.4023 11.102-11.844 19.242-11.844 3.6992 0 7.3984 0.73828 10.359 2.9609 3.6992 2.2188 8.1406 0.73828 10.359-2.9609 2.2188-3.6992 0.73828-8.1406-2.9609-10.359-5.1797-2.9609-11.836-4.4414-17.758-4.4414-11.84 0-22.938 5.1797-29.598 14.801-10.359 0-18.5 6.6602-21.461 15.539-8.8789 2.9609-15.539 11.102-15.539 21.461 0 12.578 9.6211 22.199 22.199 22.199z"/>
  <path d="m331.6 294.61c4.4414 0 7.3984-2.9609 7.3984-7.3984 0-20.719 16.281-37 37-37s37 16.281 37 37c0 4.4414 2.9609 7.3984 7.3984 7.3984 4.4414 0 7.3984-2.9609 7.3984-7.3984 0-28.859-22.938-51.797-51.797-51.797s-51.797 22.938-51.797 51.797c0 4.4375 2.9609 7.3984 7.3984 7.3984z"/>
  <path d="m376 220.61c4.4414 0 7.3984-2.9609 7.3984-7.3984l0.003906-14.801c0-4.4414-2.9609-7.3984-7.3984-7.3984-4.4414 0-7.3984 2.9609-7.3984 7.3984v14.801c-0.003907 4.4375 2.957 7.3984 7.3945 7.3984z"/>
  <path d="m318.29 239.85c1.4805 1.4805 3.6992 2.2188 5.1797 2.2188 1.4805 0 3.6992-0.73828 5.1797-2.2188 2.9609-2.9609 2.9609-7.3984 0-10.359l-10.359-10.359c-2.9609-2.9609-7.3984-2.9609-10.359 0-2.9609 2.9609-2.9609 7.3984 0 10.359z"/>
  <path d="m287.2 294.61h14.801c4.4414 0 7.3984-2.9609 7.3984-7.3984 0-4.4414-2.9609-7.3984-7.3984-7.3984h-14.801c-4.4414 0-7.3984 2.9609-7.3984 7.3984s2.9609 7.3984 7.3984 7.3984z"/>
  <path d="m442.6 287.2c0 4.4414 2.9609 7.3984 7.3984 7.3984h14.801c4.4414 0 7.3984-2.9609 7.3984-7.3984 0-4.4414-2.9609-7.3984-7.3984-7.3984h-14.801c-4.4375 0-7.3984 2.9609-7.3984 7.3984z"/>
  <path d="m428.54 242.07c2.2188 0 3.6992-0.73828 5.1797-2.2188l10.359-10.359c2.9609-2.9609 2.9609-7.3984 0-10.359-2.9609-2.9609-7.3984-2.9609-10.359 0l-10.359 10.359c-2.9609 2.9609-2.9609 7.3984 0 10.359 1.4805 1.4805 2.9609 2.2188 5.1797 2.2188z"/>
  <path d="m524 509.2c0 4.4414 2.9609 7.3984 7.3984 7.3984h25.16c3.6992 0 6.6602-1.4805 8.8789-4.4414 2.2188-2.9609 2.2188-6.6602 1.4805-9.6211l-3.6992-10.359c-1.4805-3.6992-5.918-5.918-9.6211-4.4414-3.6992 1.4805-5.918 5.918-4.4414 9.6211l1.4805 5.1797-19.238 0.003906c-4.4375-0.73828-7.3984 2.2227-7.3984 6.6602z"/>
  <path d="m188.79 516.6h2.2188c2.9609 0 5.918-2.2188 7.3984-5.1797l4.4414-14.801c1.4805-3.6992-0.73828-8.1406-5.1797-8.8789-3.6992-1.4805-8.1406 0.73828-8.8789 5.1797l-4.4414 14.801c-1.4766 2.957 0.74219 7.3984 4.4414 8.8789z"/>
  <path d="m420.4 501.8h-14.801c-4.4414 0-7.3984 2.9609-7.3984 7.3984 0 4.4414 2.9609 7.3984 7.3984 7.3984h14.801c4.4414 0 7.3984-2.9609 7.3984-7.3984 0.003906-4.4375-2.957-7.3984-7.3984-7.3984z"/>
 </g>
</svg>
