<?xml version="1.0" encoding="UTF-8"?>
<svg width="752pt" height="752pt" version="1.1" viewBox="0 0 752 752" xmlns="http://www.w3.org/2000/svg">
 <g fill="#002C5F">
  <path d="m401.65 278.52c21.113 0 38.281-17.168 38.281-38.281 0-21.113-17.168-38.281-38.281-38.281-21.113 0-38.281 17.168-38.281 38.281 0 21.309 17.168 38.281 38.281 38.281zm0-66.5c15.59 0 28.414 12.629 28.414 28.414 0 15.59-12.629 28.414-28.414 28.414-15.59 0-28.414-12.629-28.414-28.414s12.629-28.414 28.414-28.414z"/>
  <path d="m454.34 240.44c0 2.7617 2.1719 4.9336 4.9336 4.9336h19.734c2.7617 0 4.9336-2.1719 4.9336-4.9336s-2.1719-4.9336-4.9336-4.9336h-19.734c-2.7617 0-4.9336 2.1719-4.9336 4.9336z"/>
  <path d="m451.18 210.45 15.984-11.641c2.1719-1.5781 2.7617-4.7344 1.1836-6.9062-1.5781-2.1719-4.7344-2.7617-6.9062-1.1836l-15.984 11.641c-2.1719 1.5781-2.7617 4.7344-1.1836 6.9062 1.5781 2.3672 4.7344 2.7617 6.9062 1.1836z"/>
  <path d="m417.84 190.12c2.5664 0.78906 5.3281-0.59375 6.3125-3.1562l6.1172-18.746c0.78906-2.5664-0.59375-5.3281-3.1562-6.3125-2.5664-0.98828-5.3281 0.59375-6.3125 3.1562l-6.1172 18.746c-0.79297 2.7617 0.58984 5.5234 3.1562 6.3125z"/>
  <path d="m385.28 190.12c2.5664-0.78906 3.9453-3.5508 3.1562-6.1172l-6.1172-18.746c-0.78906-2.5664-3.5508-3.9453-6.1172-3.1562-2.5664 0.78906-3.9453 3.5508-3.1562 6.1172l6.1172 18.746c0.78906 2.7617 3.5508 4.1445 6.1172 3.1562z"/>
  <path d="m352.12 210.45c2.1719 1.5781 5.3281 1.1836 6.9062-1.1836 1.5781-2.1719 1.1836-5.3281-1.1836-6.9062l-15.984-11.641c-2.168-1.3828-5.3281-0.98828-6.9062 1.1836-1.5781 2.168-0.98438 5.3242 1.1836 6.9062z"/>
  <path d="m352.12 270.23-15.984 11.645c-2.168 1.5781-2.7617 4.7344-1.1836 6.9062s4.7344 2.7617 6.9062 1.1836l15.984-11.641c2.1719-1.5781 2.7617-4.7344 1.1836-6.9062s-4.7344-2.7656-6.9062-1.1875z"/>
  <path d="m379.16 293.71-6.1172 18.746c-0.78906 2.5664 0.59375 5.3281 3.1562 6.1172 2.5664 0.78906 5.3281-0.59375 6.1172-3.1562l6.1172-18.746c0.78906-2.5664-0.59375-5.3281-3.1562-6.1172-2.5664-0.78906-5.3281 0.59375-6.1172 3.1562z"/>
  <path d="m417.84 290.56c-2.5664 0.78906-3.9453 3.5508-3.1562 6.3125l6.1172 18.746c0.78906 2.5664 3.5508 3.9453 6.3125 3.1562 2.7617-0.78906 3.9453-3.5508 3.1562-6.3125l-6.1172-18.746c-0.78906-2.5625-3.75-4.1406-6.3125-3.1562z"/>
  <path d="m461.25 289.77c2.1719 1.5781 5.3281 1.1836 6.9062-1.1836 1.5781-2.1719 1.1836-5.3281-1.1836-6.9062l-15.984-11.641c-2.1719-1.5781-5.3281-1.1836-6.9062 1.1836-1.5781 2.1719-1.1836 5.3281 1.1836 6.9062z"/>
  <path d="m262.93 360.61h175.03c20.719 0 37.492 16.773 37.492 37.492v0.98828c0 20.719-16.773 37.492-37.492 37.492h-88.008c-26.246 0-47.359 21.312-47.359 47.359 0 26.246 21.312 47.359 47.359 47.359h39.465c1.9727 16.773 15.785 29.797 33.152 29.797h27.43l3.5508-1.3828 1.3828-3.5508v-9.4727h24.27c2.7617 0 4.9336-2.1719 4.9336-4.9336 0-2.7617-2.1719-4.9336-4.9336-4.9336h-24.27v-17.168h24.27c2.7617 0 4.9336-2.1719 4.9336-4.9336 0-2.7617-2.1719-4.9336-4.9336-4.9336h-24.27v-10.656l-1.3828-3.5508-3.75-1.1836h-27.43c-16.379 0-29.992 11.84-32.758 27.23h-39.664c-20.719 0-37.492-16.773-37.492-37.492s16.773-37.492 37.492-37.492h88.008c26.246 0 47.359-21.312 47.359-47.359v-0.98828c0-26.246-21.312-47.359-47.359-47.359l-175.02 0.003906c-29.203 0-52.688-23.68-52.688-52.688 0-29.203 23.68-52.688 52.688-52.688h81.102c2.7617 0 4.9336-2.1719 4.9336-4.9336 0-2.7617-2.1719-4.9336-4.9336-4.9336l-54.266 0.003906h-26.836c-34.531 0-62.551 28.02-62.551 62.551-0.19922 34.336 27.82 62.355 62.551 62.355zm159.44 143.65h22.496v47.16h-22.496c-13.023 0-23.48-10.656-23.68-23.68 0.19922-12.824 10.656-23.48 23.68-23.48z"/>
  <path d="m538.2 517.09-8.4844 10.262-1.3828 0.19531-19.141-6.3125-1.3789 1.9727 23.676 18.941 1.9766-0.39453 8.4844-10.062 1.3789-0.39453 19.141 6.3125 1.3828-1.9727-23.68-18.746z"/>
  <path d="m512.75 580.82 12.434-4.5391 1.3828 0.39453 13.418 15 2.168-0.98828-10.852-28.02-1.9727-0.78906-12.434 4.5391-1.3789-0.39453-13.418-15-2.1719 0.98828 10.852 28.02z"/>
  <path d="m500.32 501.3 0.98828 2.3672 28.809-9.0781 0.78906-1.7773-3.75-12.824 0.59375-1.3828 15.98-12.234-0.98437-2.3672-28.809 9.0781-0.79297 1.7773 3.75 12.824-0.58984 1.3828z"/>
 </g>
</svg>
