<?xml version="1.0" encoding="UTF-8"?>
<svg width="752pt" height="752pt" version="1.1" viewBox="0 0 752 752" xmlns="http://www.w3.org/2000/svg">
 <g fill="#002C5F">
  <path d="m324.2 435.2c-4.0859 0-7.3984 3.3125-7.3984 7.3984v125.8c0 16.258 13.34 29.598 29.598 29.598 1.9609 0 3.8438-0.78125 5.2344-2.168 1.3867-1.3867 2.1641-3.2695 2.1641-5.2305 0-1.9648-0.77734-3.8438-2.1641-5.2344-1.3906-1.3867-3.2734-2.168-5.2344-2.168-8.2578 0-14.801-6.543-14.801-14.801v-125.79c0-1.9609-0.77734-3.8438-2.1641-5.2305-1.3906-1.3867-3.2695-2.168-5.2344-2.168zm251.59 0c-4.0859 0-7.3984 3.3125-7.3984 7.3984v125.8c0 8.2578-6.543 14.801-14.801 14.801h-59.199c-8.2578 0-14.801-6.543-14.801-14.801l0.003906-73.996c0-16.258-13.34-29.598-29.598-29.598s-29.598 13.34-29.598 29.598v73.996c0 8.2578-6.543 14.801-14.801 14.801h-29.598l-0.003906-0.003906c-4.0859 0-7.3984 3.3164-7.3984 7.4023 0 1.9609 0.78125 3.8438 2.168 5.2305s3.2695 2.168 5.2305 2.168h29.598c16.258 0 29.598-13.34 29.598-29.598l0.003907-73.996c0-8.2578 6.543-14.801 14.801-14.801s14.801 6.543 14.801 14.801v73.996c0 16.258 13.34 29.598 29.598 29.598h59.199c16.258 0 29.598-13.34 29.598-29.598l-0.003906-125.8c0-1.9609-0.77734-3.8438-2.1641-5.2305-1.3906-1.3867-3.2695-2.168-5.2344-2.168z"/>
  <path d="m444.77 311.57-140.59 140.59v0.003907c-2.8867 2.8867-2.8867 7.5703 0 10.461 2.8906 2.8906 7.5742 2.8906 10.465 0l135.36-135.36 135.36 135.36h-0.003906c2.8906 2.8906 7.5742 2.8906 10.465 0s2.8906-7.5742 0-10.461l-140.59-140.59v-0.003907c-2.8906-2.8867-7.5742-2.8867-10.465 0z"/>
  <path d="m383.4 316.8c-4.0898 0-7.4023 3.3125-7.4023 7.3984v59.199c0 1.9609 0.78125 3.8438 2.168 5.2305 1.3867 1.3867 3.2695 2.168 5.2344 2.168 1.9609 0 3.8438-0.78125 5.2305-2.168 1.3867-1.3867 2.168-3.2695 2.168-5.2305v-59.199c0-1.9609-0.78125-3.8438-2.168-5.2305-1.3867-1.3906-3.2695-2.168-5.2305-2.168z"/>
  <path d="m437.37 259.77-147.99 147.99v0.003906c-2.8906 2.8867-2.8906 7.5742 0 10.461 2.8867 2.8906 7.5703 2.8906 10.461 0l147.99-147.99h0.003906c2.8867-2.8906 2.8867-7.5742 0-10.465-2.8906-2.8867-7.5742-2.8867-10.465 0zm-154.96-61.297c-25.293-0.82031-49.531 10.176-65.578 29.746-26.469 32.316-24.121 79.605 5.418 109.14 2.8906 2.8906 7.5742 2.8906 10.465 0 1.3867-1.3867 2.168-3.2695 2.168-5.2344 0-1.9648-0.78125-3.8477-2.168-5.2344-11.703-11.676-18.637-27.285-19.453-43.793-0.82031-16.508 4.5391-32.727 15.027-45.5 10.457-12.801 25.305-21.246 41.648-23.695 16.344-2.4492 33.016 1.2773 46.762 10.449 13.773 9.1406 23.652 23.082 27.703 39.105 4.0547 16.023 1.9961 32.984-5.7773 47.574-7.7344 14.605-20.629 25.812-36.176 31.426-15.543 5.6172-32.621 5.2461-47.906-1.043-1.8164-0.74609-3.8555-0.73828-5.6641 0.019531-1.8125 0.75781-3.25 2.2031-3.9922 4.0195-0.74609 1.8164-0.73828 3.8555 0.019531 5.668 0.75781 1.8086 2.2031 3.2461 4.0195 3.9922 38.648 15.844 83.172-0.24609 102.77-37.141 19.586-36.895 7.9922-82.789-26.785-105.93-12.617-8.4102-27.34-13.113-42.496-13.57zm-2.6055-44.465c-4.0859 0-7.3984 3.3125-7.3984 7.3984v14.801c0 1.9609 0.77734 3.8438 2.168 5.2305 1.3867 1.3867 3.2695 2.168 5.2305 2.168 1.9648 0 3.8438-0.78125 5.2344-2.168 1.3867-1.3867 2.1641-3.2695 2.1641-5.2305v-14.801c0-1.9609-0.77734-3.8438-2.1641-5.2344-1.3906-1.3867-3.2695-2.1641-5.2344-2.1641zm88.797 325.59c-12.172 0-22.199 10.027-22.199 22.199v14.801c0 12.172 10.027 22.199 22.199 22.199h14.801c12.172 0 22.199-10.027 22.199-22.199v-14.801c0-12.172-10.027-22.199-22.199-22.199zm0 14.801h14.801c4.2266 0 7.3984 3.1758 7.3984 7.3984v14.801c0 4.2266-3.1758 7.3984-7.3984 7.3984h-14.801c-4.2266 0-7.3984-3.1758-7.3984-7.3984v-14.801c0-4.2266 3.1758-7.3984 7.3984-7.3984z"/>
  <path d="m282.14 228.39c-3.875-1.2852-8.0586 0.80469-9.3555 4.6797l-14.801 44.398h0.003907c-0.75391 2.2539-0.375 4.7344 1.0156 6.6602 1.3906 1.9297 3.6211 3.0742 6 3.0742h19.336l-11.551 34.66h-0.003907c-1.2852 3.875 0.80469 8.0625 4.6797 9.3555 3.8711 1.2891 8.0586-0.80469 9.3516-4.6758l14.801-44.398c0.75-2.2578 0.37109-4.7344-1.0195-6.6641-1.3867-1.9297-3.6211-3.0742-5.9961-3.0742h-19.336l11.551-34.66c1.2891-3.875-0.80469-8.0586-4.6758-9.3555zm-2.3398 147.61c-4.0859 0-7.3984 3.3125-7.3984 7.4023v14.801-0.003906c0 1.9648 0.77734 3.8477 2.168 5.2344 1.3867 1.3867 3.2695 2.168 5.2305 2.168 1.9648 0 3.8438-0.78125 5.2344-2.168 1.3867-1.3867 2.1641-3.2695 2.1641-5.2344v-14.801 0.003906c0-1.9648-0.77734-3.8477-2.1641-5.2344-1.3906-1.3867-3.2695-2.168-5.2344-2.168zm103.6-103.6v0.003906c-4.0898 0-7.4023 3.3125-7.4023 7.3984 0 1.9648 0.78125 3.8438 2.168 5.2344 1.3867 1.3867 3.2695 2.1641 5.2344 2.1641h14.801-0.003906c1.9648 0 3.8477-0.77734 5.2344-2.1641 1.3867-1.3906 2.168-3.2695 2.168-5.2344 0-1.9609-0.78125-3.8438-2.168-5.2305-1.3867-1.3906-3.2695-2.168-5.2344-2.168zm-221.99 0.003906c-4.0859 0-7.3984 3.3125-7.3984 7.3984 0 1.9648 0.77734 3.8438 2.1641 5.2344 1.3906 1.3867 3.2734 2.1641 5.2344 2.1641h14.801c1.9609 0 3.8438-0.77734 5.2305-2.1641 1.3867-1.3906 2.168-3.2695 2.168-5.2344 0-1.9609-0.78125-3.8438-2.168-5.2305-1.3867-1.3906-3.2695-2.168-5.2305-2.168zm196.88-81.547-10.469 10.465c-2.8906 2.8906-2.8906 7.5742 0 10.465 1.3867 1.3867 3.2695 2.168 5.2344 2.168s3.8477-0.78125 5.2344-2.168l10.465-10.465c1.3906-1.3867 2.168-3.2734 2.168-5.2344 0-1.9648-0.77734-3.8477-2.168-5.2383-2.8906-2.8867-7.5742-2.8867-10.465 0zm-151.75 154.8c-1.957 0-3.8359 0.77734-5.2227 2.1602l-10.465 10.461c-1.3867 1.3906-2.168 3.2734-2.168 5.2383 0 1.9609 0.78125 3.8477 2.168 5.2344 2.8906 2.8867 7.5742 2.8867 10.465 0l10.465-10.469v-0.003906c2.8867-2.8867 2.8867-7.5703 0-10.461-1.3906-1.3867-3.2773-2.1641-5.2422-2.1602zm-10.453-156.97c-1.9609 0-3.8438 0.77734-5.2344 2.1602-1.3867 1.3906-2.168 3.2734-2.168 5.2383 0 1.9609 0.78125 3.8477 2.168 5.2344l10.465 10.465c2.8906 2.8867 7.5742 2.8867 10.465 0 2.8867-2.8906 2.8867-7.5742 0-10.465l-10.465-10.473c-1.3906-1.3828-3.2695-2.1602-5.2305-2.1602zm320.5 290.91c-12.172 0-22.199 10.027-22.199 22.199v14.801c0 12.172 10.027 22.199 22.199 22.199h14.801c12.172 0 22.199-10.027 22.199-22.199v-14.801c0-12.172-10.027-22.199-22.199-22.199zm0 14.801h14.801c4.2266 0 7.3984 3.1758 7.3984 7.3984v14.801c0 4.2266-3.1758 7.3984-7.3984 7.3984h-14.801c-4.2266 0-7.3984-3.1758-7.3984-7.3984v-14.801c0-4.2266 3.1758-7.3984 7.3984-7.3984z"/>
 </g>
</svg>
