<?xml version="1.0" encoding="UTF-8"?>
<svg width="752pt" height="752pt" version="1.1" viewBox="0 0 752 752" xmlns="http://www.w3.org/2000/svg">
 <g fill="#002C5F">
  <path d="m239.56 566.07h-4.9258c-9.9766 0-18.09 8.1133-18.09 18.09v14.68h89.938v-14.68c0-9.9766-8.1133-18.09-18.09-18.09h-4.9297v-29.57h100.05l-48.477-134.61h-142.42l-48.477 134.61h95.422zm48.828 9.6172c4.6719 0 8.4766 3.8008 8.4766 8.4727v5.0625l-70.703 0.003907v-5.0664c0-4.6719 3.8047-8.4727 8.4766-8.4727h53.75zm-14.547-39.188v29.57h-24.664v-29.57zm-7.4922-62.492h38.883l3.6523 20.75h-42.535zm17.109 52.875h-17.105l-0.003907-22.508h44.227l3.9648 22.508zm86.367 0h-45.523l-3.9648-22.508h41.383zm-11.566-32.121h-39.613l-3.6562-20.754h35.793zm-10.938-30.367h-34.023l-3.6523-20.75h30.203zm-19.051-52.887 8.1133 22.523h-28.434l-3.9648-22.523zm-24.734 52.887h-37.191l-0.003906-20.75h33.539zm-9.3125-52.887 3.9648 22.523h-31.848v-22.523zm-37.492 83.254h-42.602l3.6523-20.75h38.945zm-27.941-83.254h27.934l0.003907 22.523h-31.902zm-5.6562 32.137h33.594l0.003906 20.75h-37.25zm-23.754-32.137h19.652l-3.9648 22.523h-23.801zm-11.578 32.137h25.57l-3.6523 20.75h-29.391zm10.91 83.238h-40.887l8.1055-22.508h36.746zm5.6602-32.121h-34.98l7.4727-20.75h31.156zm4.1016 32.121 3.9648-22.508h44.297l0.003907 22.508z"/>
  <path d="m244.37 382.7h64.891v9.6172h-64.891z"/>
  <path d="m210.77 382.7h20.266v9.6172h-20.266z"/>
  <path d="m206.02 546.48h10.812v9.6172h-10.812z"/>
  <path d="m162.57 546.48h36.008v9.6172h-36.008z"/>
  <path d="m321.98 546.48h37.156v9.6172h-37.156z"/>
  <path d="m304.87 546.48h9.3359v9.6172h-9.3359z"/>
  <path d="m494.54 229.61c0-17.277-14.059-31.336-31.336-31.336-17.285 0-31.34 14.059-31.34 31.336 0 17.281 14.059 31.34 31.34 31.34 17.277 0 31.336-14.059 31.336-31.34zm-53.062 0c0-11.977 9.7461-21.723 21.727-21.723 11.977 0 21.723 9.7422 21.723 21.723 0 11.977-9.7422 21.723-21.723 21.723-11.977 0-21.727-9.7461-21.727-21.723z"/>
  <path d="m458.4 153.16h9.6172v29.566h-9.6172z"/>
  <path d="m429.14 161 14.785 25.605-8.3281 4.8086-14.785-25.605z"/>
  <path d="m420.2 210.34-25.605-14.781 4.8086-8.3281 25.605 14.781z"/>
  <path d="m386.75 224.8h29.566v9.6172h-29.566z"/>
  <path d="m420.19 248.9 4.8086 8.3281-25.605 14.781-4.8086-8.3281z"/>
  <path d="m435.61 267.81 8.3281 4.8086-14.781 25.609-8.3281-4.8086z"/>
  <path d="m458.4 276.5h9.6172v29.566h-9.6172z"/>
  <path d="m482.5 272.63 8.3281-4.8086 14.777 25.605-8.3281 4.8086z"/>
  <path d="m506.21 248.88 25.605 14.781-4.8086 8.3281-25.605-14.781z"/>
  <path d="m510.09 224.8h29.566v9.6172h-29.566z"/>
  <path d="m527 187.23 4.8086 8.3281-25.605 14.781-4.8086-8.3281z"/>
  <path d="m490.8 191.42-8.3281-4.8086 14.777-25.605 8.3281 4.8086z"/>
  <path d="m524.29 374.47c-4.0039 0-7.8477 0.90234-11.418 2.6797l4.2812 8.6094c2.2305-1.1094 4.6328-1.6719 7.1367-1.6719z"/>
  <path d="m512.32 410.9c-1.6523-1.8477-2.8789-4.0742-3.5312-6.4375l-9.2695 2.5742c1.0508 3.7812 3 7.332 5.6328 10.277z"/>
  <path d="m503.84 384.62c-2.3906 3.1406-4.0469 6.8398-4.793 10.699l9.4453 1.8164c0.46094-2.4102 1.4961-4.7227 3-6.6914z"/>
  <path d="m524.29 416.26c-2.0664-0.003906-4.0742-0.38672-5.9727-1.1445l-3.5703 8.9258c3.0352 1.2148 6.2422 1.832 9.5312 1.8359z"/>
  <path d="m477.46 373.82-8.3672-4.7383c-1.7031 3.0117-3.1758 6.1914-4.3594 9.4453l9.0352 3.293c1.0078-2.7578 2.2461-5.4492 3.6914-8z"/>
  <path d="m511.67 347.92c2.3398-0.5625 4.7344-0.97266 7.1172-1.2148l-0.96875-9.5703c-2.8164 0.28516-5.6445 0.76953-8.4062 1.4336z"/>
  <path d="m471.45 390.32-9.457-1.7578c-0.62891 3.3945-0.98438 6.8711-1.0586 10.336l9.6172 0.19141c0.054688-2.9375 0.35938-5.8906 0.89844-8.7695z"/>
  <path d="m488.48 360.12-6.4062-7.168c-2.582 2.3047-4.9883 4.8398-7.1562 7.5352l7.4922 6.0273c1.8398-2.2891 3.8828-4.4375 6.0703-6.3945z"/>
  <path d="m495.52 354.79c2.4805-1.5781 5.0977-2.957 7.793-4.1055l-3.7656-8.8477c-3.1797 1.3516-6.2734 2.9805-9.1953 4.8438z"/>
  <path d="m560.79 435.09h-36.504c-19.25 0-34.914-15.664-34.914-34.914s15.664-34.914 34.914-34.914h33.543c27.523 0 49.922-22.395 49.922-49.922 0-25.754-19.609-47.012-44.68-49.641l6.1602-6.1445-6.7891-6.8086-17.5 17.457 17.496 17.496 6.8008-6.8008-5.3633-5.3633c19.359 2.9297 34.262 19.637 34.262 39.801 0 22.227-18.082 40.309-40.305 40.309h-33.543c-24.551 0-44.531 19.977-44.531 44.531 0 24.555 19.98 44.531 44.531 44.531h36.504c23.578 0 37.449 18.344 37.449 40.676 0 18.516-10.449 38.348-33.242 40.531-2.3008-10.152-11.359-17.773-22.195-17.773h-11.176l-55.828-24.141v-11.805h-31.98v16.297h-36.984c-8.4414 0-15.312 6.8711-15.312 15.312 0 8.4414 6.8711 15.312 15.312 15.312h36.984v23.141h-36.984c-8.4414 0-15.312 6.8672-15.312 15.309s6.8711 15.312 15.312 15.312h36.984v16.297h31.98v-11.809l54.629-23.621h12.375c11 0 20.207-7.832 22.332-18.215 28.047-2.2852 42.719-26.332 42.719-50.152 0-27.082-17.598-50.289-47.066-50.289zm-116.97 128.16h-36.984c-3.1406 0-5.6953-2.5547-5.6953-5.6953 0-3.1406 2.5547-5.6914 5.6953-5.6914h36.984zm0-53.758h-36.984c-3.1406 0-5.6953-2.5547-5.6953-5.6953s2.5547-5.6953 5.6953-5.6953h36.984zm22.363 70.059h-12.75l0.003906-6.6836v-91.066h12.75zm59.641-34.305-50.023 21.633v-72.406l50.023 21.633zm16.98-1.1289h-7.3633v-26.363h7.3633c7.2695 0 13.18 5.9141 13.18 13.184 0 7.2656-5.9141 13.18-13.18 13.18z"/>
  <path d="m523.75 565.82 8.3242-4.0508 4.207 8.6484-8.3242 4.0508z"/>
  <path d="m494.58 580.02 20.883-10.16 4.207 8.6484-20.883 10.16z"/>
  <path d="m238.79 230.46 1.4922-9.5c-7.1523-1.125-13.379 0.34375-18.59 4.3438-3.6445 2.7969-6.2891 6.5234-8.1875 10.273-1.9023-3.75-4.5469-7.4766-8.1875-10.273-5.207-4-11.453-5.4727-18.59-4.3438l1.4922 9.5c4.4688-0.69531 8.1367 0.10156 11.219 2.457 7.6641 5.8594 9.2109 19.148 9.2266 19.273l0.57813 4.3008h8.6484l0.45703-4.3008c0.015625-0.13281 1.6211-13.43 9.2031-19.258 3.082-2.3672 6.7578-3.1719 11.238-2.4727z"/>
  <path d="m340 200.55c3.0859-2.3633 6.7578-3.168 11.242-2.4727l1.4922-9.5c-7.1406-1.125-13.379 0.34375-18.59 4.3438-3.6445 2.7969-6.2891 6.5234-8.1875 10.273-1.9062-3.75-4.5469-7.4766-8.1875-10.27-5.207-4-11.457-5.4688-18.59-4.3438l1.4922 9.5c4.4766-0.69531 8.1328 0.10156 11.219 2.457 7.6641 5.8594 9.2109 19.148 9.2266 19.273l0.57422 4.3008h8.6484l0.45703-4.3008c0.007813-0.13672 1.6172-13.434 9.2031-19.262z"/>
  <path d="m311.73 298.41c4.8594-3.7305 10.621-5.0234 17.59-3.9219l1.4922-9.5c-9.5742-1.5-17.969 0.44922-24.938 5.7969-6.2031 4.7617-10.273 11.527-12.926 17.879-2.6484-6.3516-6.7188-13.121-12.922-17.879-6.9648-5.3477-15.348-7.3047-24.938-5.7969l1.4922 9.5c6.9492-1.0898 12.711 0.18359 17.562 3.9023 11.641 8.9062 13.918 28.691 13.941 28.891l0.63672 4.293h8.6406l0.45703-4.3008c0.019531-0.19531 2.2305-19.895 13.91-28.863z"/>
 </g>
</svg>
