<?xml version="1.0" encoding="UTF-8"?>
<svg width="752pt" height="752pt" version="1.1" viewBox="0 0 752 752" xmlns="http://www.w3.org/2000/svg">
 <g fill="#002C5F">
  <path d="m555.27 280.98h-264.76l-51.945 238.6h143.51 0.54297v36.242h-22.461c-20.461 0-37.105 16.648-37.105 37.105v5.3281h-91.188v9.5938h290.87 31.594v-9.5898h-31.594v-5.3281c0-20.461-16.648-37.105-37.105-37.105h-22.461v-36.242h0.54297 143.51zm20.555 139.54h-54.766l-5.2109-40.477h51.168zm-63.207 9.5977 5.2109 40.477h-56.266l-1.7695-40.477zm-53.242-9.5977-1.7695-40.477h48.566l5.2109 40.477zm96.738-90.547 8.8125 40.477h-50.312l-5.2109-40.477zm-8.5781-39.398 6.4883 29.801h-45.859l-3.8359-29.801zm-42.598 79.875h-47.75l-1.7695-40.477h44.309zm-10.281-79.875 3.8359 29.801h-43.492l-1.3008-29.801zm-92.977 0h42.414l1.3008 29.801h-45.02zm-1.7227 39.398h45.859l1.7695 40.477h-49.395zm-2.1875 50.074h50.234l1.7695 40.477h-53.77zm-2.1875 50.07h54.609l1.7695 40.477h-58.148zm-2.1875 50.074h58.984l1.3008 29.797h-61.586zm60.172 39.391v36.242h-61.359v-36.242zm-102.45-229.01h40.961l-1.3008 29.801h-43.496zm39.238 39.398-1.7695 40.477h-47.75l5.2109-40.477zm-55.965 90.547 5.2109-40.477h48.566l-1.7695 40.477zm51.59 9.5977-1.7695 40.477h-56.266l5.2109-40.477zm-87.746-139.54h43.207l-3.8359 29.801h-45.859zm-8.5742 39.398h46.711l-5.2109 40.477h-50.312zm-10.902 50.074h51.168l-5.2109 40.477-54.766-0.003906zm34.441 129.94h-62.727l6.4883-29.797h60.074zm-54.152-39.395 8.8125-40.477h55.621l-5.2109 40.477zm123.44 39.395h-59.613l3.8359-29.797h57.082zm103.13 55.43c15.172 0 27.512 12.34 27.512 27.512v5.3281l-180.49 0.003906v-5.3281c0-0.90234 0.050781-1.7969 0.13672-2.6758h39.262v-9.5938h-36.473c4.5195-9.0195 13.828-15.238 24.586-15.238 123.02 0 98.781-0.007813 125.47-0.007813zm-22.336-55.43-1.3008-29.797h57.078l3.8359 29.797zm59.008-79.871h55.621l8.8125 40.477h-59.223zm6.4453 50.074h60.074l6.4883 29.797h-62.727z"/>
  <path d="m180.87 214.95c0 19.145 15.578 34.727 34.727 34.727 19.145 0 34.727-15.578 34.727-34.727 0-19.145-15.578-34.727-34.727-34.727-19.148 0-34.727 15.578-34.727 34.727zm34.723-25.129c13.855 0 25.129 11.273 25.129 25.129s-11.273 25.129-25.129 25.129-25.129-11.273-25.129-25.129 11.273-25.129 25.129-25.129z"/>
  <path d="m210.8 144.14h9.5938v21.906h-9.5938z"/>
  <path d="m186.99 175-10.953-18.973 8.3125-4.7969 10.953 18.973z"/>
  <path d="m170.85 194.66-18.973-10.953 4.7969-8.3125 18.973 10.953z"/>
  <path d="m144.79 210.16h21.906v9.5938h-21.906z"/>
  <path d="m151.88 246.2 18.973-10.953 4.7969 8.3125-18.973 10.953z"/>
  <path d="m195.3 259.71-10.953 18.969-8.3125-4.7969 10.953-18.969z"/>
  <path d="m210.8 263.85h9.5938v21.906h-9.5938z"/>
  <path d="m244.2 254.9 10.953 18.969-8.3125 4.7969-10.953-18.969z"/>
  <path d="m279.32 246.21-4.7969 8.3125-18.973-10.953 4.7969-8.3125z"/>
  <path d="m264.5 210.16h21.906v9.5938h-21.906z"/>
  <path d="m274.52 175.4 4.7969 8.3125-18.973 10.953-4.7969-8.3125z"/>
  <path d="m255.15 156.03-10.953 18.973-8.3125-4.7969 10.953-18.973z"/>
  <path d="m589.65 222.77c0-22.582-21.488-38.238-42.383-32.754-3.6406-24.09-24.656-42.73-49.629-42.73-22.258 0-41.492 14.52-47.875 35.309-27.676-11.211-59.367 9.0312-59.367 40.172v4.7969h52.629v-9.5938h-42.703c3.2578-23.191 29.473-36.438 50.281-24.297l5.9531 3.4727 1.1914-6.7852c3.4062-19.398 20.184-33.477 39.891-33.477 22.012 0 40.219 17.898 40.59 39.898l0.125 7.5664 6.793-3.3438c14.246-7.0234 31.363 1.5508 34.438 16.969h-119.63v9.5938h129.7z"/>
  <path d="m384.28 580.66h15.5v9.5938h-15.5z"/>
  <path d="m574.37 598.27h21.125v9.5938h-21.125z"/>
  <path d="m387.41 257.19h124.48v9.5938h-124.48z"/>
  <path d="m340.02 257.19h32.027v9.5938h-32.027z"/>
  <path d="m205.97 368.13h38.551v9.5938h-38.551z"/>
  <path d="m173.25 368.13h15.426v9.5938h-15.426z"/>
 </g>
</svg>
