<?xml version="1.0" encoding="UTF-8"?>
<svg width="752pt" height="752pt" version="1.1" viewBox="0 0 752 752" xmlns="http://www.w3.org/2000/svg">
 <defs>
  <clipPath id="b">
   <path d="m139.21 173h220.79v222h-220.79z"/>
  </clipPath>
  <clipPath id="a">
   <path d="m370 461h242.79v112h-242.79z"/>
  </clipPath>
 </defs>
 <g clip-path="url(#b)">
  <path d="m359.8 293.08v-17.957h-42.801c-1.4102-12.195-6.1172-23.367-13.125-32.68l29.977-30.004-12.684-12.684-29.898 29.879c-9.3008-7.2148-20.531-12.047-32.773-13.586l-0.007813-42.23h-17.965v42.398c-12.113 1.7188-23.172 6.6133-32.324 13.898l-30.332-30.352-12.703 12.715 30.594 30.566c-6.7852 9.207-11.305 20.156-12.684 32.078h-43.863v17.957h44.238c1.7656 11.586 6.4648 22.195 13.332 31.055l-31.609 31.617 12.695 12.703 31.703-31.715c8.8906 6.6797 19.461 11.23 30.961 12.863v44.812h17.965v-44.641c11.652-1.4766 22.344-5.9297 31.395-12.574l31.27 31.27 12.695-12.703-31-31.008c7.1328-8.9922 11.98-19.816 13.785-31.668l43.16 0.007812zm-109.88 39.098c-27.27 0-49.379-22.102-49.379-49.398 0-27.258 22.102-49.367 49.379-49.367 27.277 0 49.379 22.109 49.379 49.367 0.011719 27.297-22.098 49.398-49.379 49.398z" fill="#002C5F"/>
 </g>
 <path d="m400.9 381.84h-49.68l-27.391 50.715h49.66z" fill="#002C5F"/>
 <path d="m466.55 369.73 32.547-60.195-45.562-0.16016-32.613 60.355z" fill="#002C5F"/>
 <path d="m460 381.84h-45.637l-27.41 50.715h45.641z" fill="#002C5F"/>
 <path d="m353.01 495.36h45.609l27.41-50.703h-45.617z" fill="#002C5F"/>
 <path d="m346.46 507.46-34.773 64.328 45.535 0.15234 34.852-64.48z" fill="#002C5F"/>
 <path d="m366.94 444.65h-49.648l-27.402 50.703h49.633z" fill="#002C5F"/>
 <path d="m283.35 507.46-34.645 64.133 49.52 0.14844 34.758-64.281z" fill="#002C5F"/>
 <path d="m491.19 444.65h-51.68l-27.41 50.703h51.691z" fill="#002C5F"/>
 <path d="m440.09 309.34-49.621-0.16797-32.711 60.559h49.691z" fill="#002C5F"/>
 <path d="m531.66 369.73 32.398-59.977-51.52-0.17969-32.523 60.156z" fill="#002C5F"/>
 <path d="m525.12 381.84h-51.66l-27.41 50.715h51.672z" fill="#002C5F"/>
 <g clip-path="url(#a)">
  <path d="m603.64 526.14h-36.691v-19.375h36.691c4.8398 0 8.75-3.918 8.75-8.75 0-4.8281-3.9102-8.75-8.75-8.75h-36.691v-27.664c-29.43 0-53.551 19.938-57.797 45.902l-103.59-0.042969-34.879 64.516 51.633 0.17969 26.863-49.746h59.848c3.7383 26.422 28.086 46.953 57.91 46.953v-25.746h36.691c4.8398 0 8.75-3.9102 8.75-8.7383s-3.9102-8.7383-8.7383-8.7383z" fill="#002C5F"/>
 </g>
</svg>
