<?xml version="1.0" encoding="UTF-8"?>
<svg width="752pt" height="752pt" version="1.1" viewBox="0 0 752 752" xmlns="http://www.w3.org/2000/svg">
 <defs>
  <clipPath id="b">
   <path d="m376 139.21h16v63.789h-16z"/>
  </clipPath>
  <clipPath id="a">
   <path d="m376 549h16v63.793h-16z"/>
  </clipPath>
 </defs>
 <g clip-path="url(#b)">
  <path d="m376 147.2v47.359c0 4.3555 3.5352 7.8906 7.8945 7.8906s7.8945-3.5352 7.8945-7.8906v-47.359c0-4.3594-3.5352-7.8945-7.8945-7.8945s-7.8945 3.5352-7.8945 7.8945z" fill="#002C5F" fill-rule="evenodd"/>
 </g>
 <g clip-path="url(#a)">
  <path d="m376 557.64v47.355c0 4.3594 3.5352 7.8945 7.8945 7.8945s7.8945-3.5352 7.8945-7.8945v-47.355c0-4.3594-3.5352-7.8945-7.8945-7.8945s-7.8945 3.5352-7.8945 7.8945z" fill="#002C5F" fill-rule="evenodd"/>
 </g>
 <path d="m202.36 368.2h-47.359c-4.3594 0-7.8906 3.5352-7.8906 7.8945s3.5312 7.8906 7.8906 7.8906h47.359c4.3594 0 7.8945-3.5312 7.8945-7.8906s-3.5352-7.8945-7.8945-7.8945z" fill="#002C5F" fill-rule="evenodd"/>
 <path d="m249.95 498.88-45.281 45.281c-3.082 3.082-3.082 8.082 0 11.164 3.082 3.082 8.0781 3.082 11.16 0l45.285-45.281c3.082-3.082 3.082-8.082 0-11.164-3.082-3.082-8.082-3.082-11.164 0z" fill="#002C5F" fill-rule="evenodd"/>
 <path d="m563.12 544.16-45.281-45.281c-3.082-3.082-8.082-3.082-11.164 0-3.082 3.082-3.082 8.082 0 11.164l45.285 45.281c3.082 3.082 8.0781 3.082 11.16 0 3.082-3.082 3.082-8.082 0-11.164z" fill="#002C5F" fill-rule="evenodd"/>
 <path d="m261.11 242.15-45.285-45.285c-3.082-3.082-8.0781-3.082-11.16 0-3.082 3.082-3.082 8.082 0 11.164l45.281 45.281c3.082 3.082 8.082 3.082 11.164 0 3.082-3.082 3.082-8.0781 0-11.16z" fill="#002C5F" fill-rule="evenodd"/>
 <path d="m213.7 439.76-21.793 9.2539c-4.0117 1.7031-5.8867 6.3359-4.1836 10.348 1.707 4.0117 6.3398 5.8867 10.352 4.1836l21.793-9.2539c4.0117-1.7031 5.8828-6.3359 4.1797-10.348-1.7031-4.0117-6.3359-5.8867-10.348-4.1836z" fill="#002C5F" fill-rule="evenodd"/>
 <path d="m577.13 445.66-21.953-8.875c-4.0391-1.6328-8.6406 0.32031-10.273 4.3633-1.6328 4.0391 0.31641 8.6406 4.3594 10.273l21.949 8.8711c4.043 1.6367 8.6445-0.31641 10.277-4.3594 1.6328-4.043-0.32031-8.6406-4.3594-10.273z" fill="#002C5F" fill-rule="evenodd"/>
 <path d="m218.53 300.77-21.949-8.875c-4.043-1.6328-8.6445 0.32031-10.277 4.3633-1.6328 4.0391 0.32031 8.6406 4.3594 10.273l21.953 8.8711c4.0391 1.6367 8.6406-0.31641 10.273-4.3594 1.6328-4.0391-0.31641-8.6406-4.3594-10.273z" fill="#002C5F" fill-rule="evenodd"/>
 <path d="m471.34 561.92-9.25-21.801c-1.7031-4.0117-6.3359-5.8867-10.348-4.1836-4.0117 1.7031-5.8867 6.3359-4.1836 10.348l9.25 21.801c1.7031 4.0156 6.3359 5.8867 10.352 4.1836 4.0117-1.7031 5.8828-6.3359 4.1797-10.348z" fill="#002C5F" fill-rule="evenodd"/>
 <path d="m320.23 205.91-9.25-21.801c-1.7031-4.0117-6.3359-5.8867-10.348-4.1836-4.0156 1.7031-5.8867 6.3359-4.1836 10.348l9.25 21.801c1.7031 4.0156 6.3359 5.8867 10.348 4.1836 4.0156-1.7031 5.8867-6.3359 4.1836-10.348z" fill="#002C5F" fill-rule="evenodd"/>
 <path d="m314.34 569.33 8.8711-21.957c1.6367-4.043-0.31641-8.6445-4.3594-10.277-4.043-1.6328-8.6406 0.32031-10.273 4.3633l-8.875 21.957c-1.6328 4.043 0.32031 8.6445 4.3633 10.277 4.043 1.6328 8.6406-0.32031 10.273-4.3633z" fill="#002C5F" fill-rule="evenodd"/>
 <path d="m569.14 221.81c26.656 29.012 26.656 76.312-0.023437 105.35l-3.4453 3.7422c-26.359 28.688-68.805 28.688-95.164 0.003906l-3.4414-3.7461c-26.684-29.035-26.684-76.336 0-105.37l51.012-55.078zm11.598-10.707-56.875-61.375c-3.125-3.3711-8.457-3.3711-11.578 0l-56.824 61.355c-32.25 35.094-32.25 91.68-0.019532 126.75l3.4375 3.7461c32.621 35.492 85.805 35.492 118.41 0.003906l3.4453-3.7461c32.234-35.078 32.234-91.664 0-126.74z" fill="#002C5F" fill-rule="evenodd"/>
 <path d="m467.05 327.16c-22.152-24.117-26.219-61.551-10.398-90.629l4.0352-7.4141-7.668-3.5273c-21.672-9.9805-45.074-15.238-69.129-15.238-91.543 0-165.75 74.207-165.75 165.75 0 91.539 74.207 165.75 165.75 165.75 91.539 0 165.75-74.215 165.75-165.75 0-6.4688-0.47266-13.066-1.3828-20.465l-1.1836-9.5938-9.168 3.0781c-23.621 7.9414-49.512 1.2617-67.406-18.215zm66.445 39.469c0.24219 3.2812 0.36328 6.4062 0.36328 9.4766 0 82.816-67.148 149.96-149.97 149.96-82.824 0-149.96-67.145-149.96-149.96 0-82.828 67.141-149.97 149.96-149.97 19.039 0 37.625 3.6445 55.129 10.617-14.418 33.59-8.4297 74.051 16.41 101.09l3.4531 3.75c19.773 21.516 47.789 30.48 74.613 25.035z" fill="#002C5F" fill-rule="evenodd"/>
 <path d="m422.72 316.06c2.2305-5.2109-1.5898-11.004-7.2578-11.004h-39.465c-2.9883 0-5.7227 1.6914-7.0586 4.3633l-39.465 78.93c-2.625 5.25 1.1914 11.422 7.0586 11.422h13.07l-20.629 68.77c-2.5195 8.3945 8.4727 14.027 13.816 7.082l78.93-102.61c3.9922-5.1914 0.29297-12.707-6.2578-12.707h-11.707zm-66.312 115.96 11.367-37.879c1.5156-5.0625-2.2734-10.16-7.5625-10.16h-10.906l31.57-63.145h22.617l-18.965 44.25c-2.2305 5.207 1.5898 11.004 7.2578 11.004h7.6484z" fill="#002C5F" fill-rule="evenodd"/>
</svg>
