<?xml version="1.0" encoding="UTF-8"?>
<svg width="752pt" height="752pt" version="1.1" viewBox="0 0 752 752" xmlns="http://www.w3.org/2000/svg">
 <g fill="#002C5F">
  <path d="m242.81 583.19c-4.0898 0-7.4023 3.3164-7.4023 7.4023 0 1.9609 0.78125 3.8438 2.168 5.2305s3.2695 2.168 5.2344 2.168h347.79c1.9609 0 3.8438-0.78125 5.2305-2.168s2.168-3.2695 2.168-5.2305c0-1.9648-0.78125-3.8438-2.168-5.2344-1.3867-1.3867-3.2695-2.168-5.2305-2.168z"/>
  <path d="m531.39 553.59c-5.8867 0-11.531 2.3359-15.695 6.4961-4.1641 4.1641-6.5039 9.8086-6.5039 15.695v14.809c0 1.9609 0.78125 3.8438 2.168 5.2305s3.2695 2.168 5.2344 2.168c1.9609 0 3.8438-0.78125 5.2305-2.168s2.168-3.2695 2.168-5.2305v-14.809c0-2.6562 1.4062-5.0781 3.6992-6.4023 2.293-1.332 5.1055-1.332 7.3984 0 2.293 1.332 3.6992 3.7461 3.6992 6.4023v14.809c0 1.9609 0.78125 3.8438 2.168 5.2305 1.3906 1.3867 3.2695 2.168 5.2344 2.168 1.9609 0 3.8438-0.78125 5.2305-2.168 1.3906-1.3867 2.168-3.2695 2.168-5.2305v-14.809c-0.007812-5.8828-2.3477-11.523-6.5117-15.684-4.1602-4.1602-9.8008-6.5-15.688-6.5078z"/>
  <path d="m531.39 435.2c-4.0859 0-7.3984 3.3125-7.3984 7.3984v118.39c0 1.9648 0.77734 3.8477 2.168 5.2344 1.3867 1.3867 3.2695 2.168 5.2305 2.168 1.9648 0 3.8438-0.78125 5.2344-2.168 1.3867-1.3867 2.1641-3.2695 2.1641-5.2344v-118.39c0-1.9609-0.77734-3.8438-2.1641-5.2305-1.3906-1.3867-3.2695-2.168-5.2344-2.168z"/>
  <path d="m585.36 378.17-133.2 133.2h0.003907c-2.8906 2.8906-2.8906 7.5742 0 10.465 2.8867 2.8867 7.5703 2.8867 10.461 0l133.2-133.2c2.8906-2.8906 2.8906-7.5742 0-10.465-2.8906-2.8867-7.5742-2.8867-10.465 0zm-216.76 175.43c-5.8867 0-11.531 2.3359-15.695 6.4961-4.1641 4.1641-6.5039 9.8086-6.5039 15.695v14.809c0 1.9609 0.78125 3.8438 2.168 5.2305 1.3867 1.3867 3.2695 2.168 5.2305 2.168 1.9648 0 3.8477-0.78125 5.2344-2.168 1.3867-1.3867 2.168-3.2695 2.168-5.2305v-14.809c0-2.6562 1.4062-5.0781 3.6992-6.4023 2.293-1.332 5.1055-1.332 7.3984 0 2.293 1.332 3.6992 3.7461 3.6992 6.4023v14.809c0 1.9609 0.78125 3.8438 2.168 5.2305s3.2695 2.168 5.2344 2.168c1.9609 0 3.8438-0.78125 5.2305-2.168 1.3867-1.3867 2.168-3.2695 2.168-5.2305v-14.809c-0.007812-5.8828-2.3477-11.523-6.5117-15.684-4.1602-4.1602-9.8047-6.5-15.688-6.5078z"/>
  <path d="m368.6 435.2c-4.0859 0-7.3984 3.3125-7.3984 7.3984v118.39c0 1.9648 0.77734 3.8477 2.168 5.2344 1.3867 1.3867 3.2695 2.168 5.2305 2.168 1.9609 0 3.8438-0.78125 5.2344-2.168 1.3867-1.3867 2.1641-3.2695 2.1641-5.2344v-118.39c0-1.9609-0.77734-3.8438-2.1641-5.2305-1.3906-1.3867-3.2734-2.168-5.2344-2.168z"/>
  <path d="m422.57 378.17-133.2 133.2h0.003906c-2.8906 2.8906-2.8906 7.5742 0 10.465 2.8867 2.8867 7.5703 2.8867 10.461 0l133.2-133.2c2.8867-2.8906 2.8867-7.5742 0-10.465-2.8906-2.8867-7.5742-2.8867-10.465 0zm-214.42 87.016c-3.875-1.2891-8.0625 0.80469-9.3555 4.6758l-14.801 44.398c-0.75 2.2539-0.37109 4.7344 1.0195 6.6641 1.3867 1.9297 3.6211 3.0703 5.9961 3.0742h19.336l-11.551 34.66c-1.2891 3.875 0.80469 8.0586 4.6758 9.3516 3.875 1.2891 8.0625-0.80469 9.3555-4.6758l14.801-44.398h-0.003906c0.75391-2.2539 0.375-4.7344-1.0156-6.6641-1.3906-1.9297-3.6211-3.0703-5.9961-3.0742h-19.336l11.551-34.66c1.2891-3.875-0.80469-8.0586-4.6758-9.3516zm46.945-266.54h-0.003906c-18.426-1.7266-36.379 6.4883-47.113 21.562-7.0742 9.9844-10.391 22.145-9.3633 34.336 1.0234 12.191 6.3242 23.629 14.965 32.293 1.3867 1.3867 3.2695 2.168 5.2344 2.168s3.8477-0.78125 5.2344-2.168c1.3906-1.3906 2.1719-3.2734 2.1719-5.2344 0-1.9648-0.78125-3.8477-2.1719-5.2383-6.1914-6.1719-9.9961-14.34-10.727-23.055-0.73437-8.7148 1.6484-17.402 6.7266-24.523 5.0469-7.1406 12.469-12.258 20.941-14.434 8.4688-2.1797 17.438-1.2812 25.305 2.5352 7.8828 3.7891 14.168 10.254 17.73 18.242 3.5625 7.9883 4.1719 16.98 1.7227 25.379-2.418 8.4023-7.7422 15.676-15.023 20.523-7.2812 4.8438-16.047 6.9492-24.734 5.9375-1.9492-0.22656-3.9102 0.33203-5.4453 1.5547-1.5391 1.2188-2.5273 3-2.7539 4.9492-0.46484 4.0586 2.4531 7.7266 6.5117 8.1914 12.156 1.3828 24.41-1.5781 34.594-8.3555 10.188-6.7812 17.648-16.941 21.066-28.688 3.3906-11.754 2.5195-24.332-2.4648-35.504-4.9805-11.172-13.754-20.227-24.766-25.559-5.543-2.6797-11.52-4.3438-17.648-4.9141zm-4.8867-44.633c-4.0859 0-7.3984 3.3125-7.3984 7.3984v14.801c0 1.9609 0.77734 3.8438 2.1641 5.2305 1.3906 1.3867 3.2695 2.168 5.2344 2.168 1.9609 0 3.8438-0.78125 5.2305-2.168 1.3906-1.3867 2.168-3.2695 2.168-5.2305v-14.801c0-1.9609-0.77734-3.8438-2.168-5.2344-1.3867-1.3867-3.2695-2.1641-5.2305-2.1641zm0 162.79c-4.0859 0-7.3984 3.3125-7.3984 7.3984v14.801c0 1.9609 0.77734 3.8438 2.1641 5.2305 1.3906 1.3867 3.2695 2.168 5.2344 2.168 1.9609 0 3.8438-0.78125 5.2305-2.168 1.3906-1.3867 2.168-3.2695 2.168-5.2305v-14.801c0-1.9609-0.77734-3.8438-2.168-5.2305-1.3867-1.3906-3.2695-2.168-5.2305-2.168zm73.996-73.996c-4.0859 0-7.3984 3.3125-7.3984 7.3984 0 1.9609 0.77734 3.8438 2.168 5.2305 1.3867 1.3906 3.2695 2.168 5.2305 2.168h14.801c1.9609 0 3.8438-0.77734 5.2305-2.168 1.3867-1.3867 2.168-3.2695 2.168-5.2305 0-1.9648-0.78125-3.8438-2.168-5.2344-1.3867-1.3867-3.2695-2.1641-5.2305-2.1641zm-162.79 0c-4.0859 0-7.3984 3.3125-7.3984 7.3984 0 1.9609 0.77734 3.8438 2.1641 5.2305 1.3906 1.3906 3.2734 2.168 5.2344 2.168h14.801c1.9609 0 3.8438-0.77734 5.2305-2.168 1.3867-1.3867 2.168-3.2695 2.168-5.2305 0-1.9648-0.78125-3.8438-2.168-5.2344-1.3867-1.3867-3.2695-2.1641-5.2305-2.1641zm146.35-60.617-10.465 10.465v-0.003906c-2.8867 2.8906-2.8867 7.5742 0 10.461 2.8906 2.8906 7.5742 2.8906 10.465 0l10.465-10.465-0.003906 0.003906c2.8906-2.8906 2.8906-7.5742 0-10.465-2.8867-2.8867-7.5703-2.8867-10.461 0zm-109.88 112.94c-1.9609 0-3.8438 0.78125-5.2305 2.168l-10.465 10.465c-2.8867 2.8906-2.8867 7.5742 0 10.461 2.8906 2.8906 7.5742 2.8906 10.465 0l10.465-10.465-0.003907 0.003907c2.8906-2.8906 2.8906-7.5742 0-10.465-1.3867-1.3867-3.2695-2.168-5.2305-2.168zm99.414 2.168c-2.8867 2.8906-2.8867 7.5742 0 10.465l10.465 10.465v-0.003906c2.8906 2.8906 7.5742 2.8906 10.461 0 2.8906-2.8867 2.8906-7.5703 0-10.461l-10.465-10.465h0.003907c-2.8906-2.8867-7.5742-2.8867-10.465 0zm-109.88-117.28c-1.9648 0-3.8477 0.78125-5.2344 2.168-2.8867 2.8906-2.8867 7.5742 0 10.465l10.465 10.465v-0.003907c2.8906 2.8906 7.5742 2.8906 10.461 0 2.8906-2.8867 2.8906-7.5703 0-10.461l-10.461-10.465c-1.3867-1.3867-3.2695-2.168-5.2305-2.168z"/>
  <path d="m205.74 405.6c-5.8594 0.03125-11.473 2.3711-15.617 6.5156-4.1445 4.1445-6.4844 9.7539-6.5156 15.617v7.4648h-7.4648c-5.8633 0.03125-11.473 2.3711-15.617 6.5156-4.1445 4.1445-6.4844 9.7578-6.5156 15.617v118.54c0.03125 5.8594 2.375 11.469 6.5195 15.609 4.1406 4.1445 9.7539 6.4844 15.613 6.5156 1.9609 0 3.8438-0.78125 5.2305-2.168s2.168-3.2695 2.168-5.2305c0-1.9648-0.78125-3.8438-2.168-5.2344-1.3867-1.3867-3.2695-2.168-5.2305-2.168-1.9531 0.03125-3.8359-0.73438-5.2188-2.1133-1.3789-1.3828-2.1445-3.2656-2.1172-5.2188v-118.54c0-4.1367 3.1953-7.332 7.332-7.332h59.332c4.1367 0 7.332 3.1953 7.332 7.332v118.54h0.003906c0.027344 1.9531-0.73828 3.8359-2.1172 5.2148-1.3828 1.3828-3.2656 2.1484-5.2188 2.1172h-29.664c-4.0859 0-7.3984 3.3125-7.3984 7.4023 0 1.9609 0.77734 3.8438 2.1641 5.2305 1.3906 1.3867 3.2734 2.168 5.2344 2.168h29.664c5.8633-0.03125 11.477-2.375 15.621-6.5195 4.1406-4.1445 6.4844-9.7578 6.5117-15.621v-118.54c-0.03125-5.8594-2.375-11.469-6.5195-15.609-4.1445-4.1445-9.7539-6.4844-15.613-6.5156h-7.4648v-7.4648c-0.03125-5.8633-2.375-11.473-6.5156-15.617-4.1445-4.1445-9.7578-6.4844-15.617-6.5156zm0 14.801h0.13281c4.1367 0 7.332 3.1953 7.332 7.332v7.4648h-14.797v-7.4648c0-4.1367 3.1953-7.332 7.332-7.332z"/>
 </g>
</svg>
